PathFileType	4	(X/Y/Z)	16_1_12_p1_0-419_filt_butterworth.trc
DataRate	CameraRate	NumFrames	NumMarkers	Units	OrigDataRate	OrigDataStartFrame	OrigNumFrames
57.0	57.0	5	27	m	57.0	366	419
Frame#	Time	RHip			RKnee			RAnkle			RBigToe			RSmallToe			RHeel			LHip			LKnee			LAnkle			LBigToe			LSmallToe			LHeel			Neck			Head			Nose			RShoulder			RElbow			RWrist			RThumb			RIndex			RPinky			LShoulder			LElbow			LWrist			LThumb			LIndex			LPinky			
		X1	Y1	Z1	X2	Y2	Z2	X3	Y3	Z3	X4	Y4	Z4	X5	Y5	Z5	X6	Y6	Z6	X7	Y7	Z7	X8	Y8	Z8	X9	Y9	Z9	X10	Y10	Z10	X11	Y11	Z11	X12	Y12	Z12	X13	Y13	Z13	X14	Y14	Z14	X15	Y15	Z15	X16	Y16	Z16	X17	Y17	Z17	X18	Y18	Z18	X19	Y19	Z19	X20	Y20	Z20	X21	Y21	Z21	X22	Y22	Z22	X23	Y23	Z23	X24	Y24	Z24	X25	Y25	Z25	X26	Y26	Z26	X27	Y27	Z27	
366	6.421052631578948	0.3108985743264118	0.9151619951297142	0.536133661121314	0.3253804478607918	0.4938881379872541	0.6157329193161749	0.3397384145629651	0.07343080507377031	0.7279449680453717	0.3919529018288038	0.06676994502682139	0.5264731349174477	0.42267290932898804	0.08137401828764149	0.5628674713098293	0.3253812123747247	0.03651004115513207	0.761153674566363	0.09131249410274832	0.9152282546264219	0.5463278497606421	0.05525344564764743	0.49152226955092065	0.6527825308770904	0.018460782725742805	0.07416554541383893	0.763398581740963	-0.013798376607353564	0.08076164723091483	0.5134161146731542	-0.0562014911979365	0.07312754042240958	0.5755172991967803	0.02379579184165081	-0.020487836537789513	0.8410956201726821	0.22283615365219311	1.5869274931604076	0.5562232982709362	0.25658454413257153	1.8428346801817042	0.4852104186573654	0.22755320521642722	1.6979488370894233	0.41291411511984843	0.380504432397172	1.4925192738027329	0.5389027278245223	0.4542764335701805	1.2078381155653881	0.540533785254379	0.2840891704081859	1.0491784009050822	0.3455271146661934	0.17749532264482584	0.9945356538465648	0.3427028735201231	0.16430442026327796	0.9699312510622076	0.34633187066343574	0.18574992799710563	0.9555125199631403	0.3312572978626753	0.03269918248175171	1.4949747079570463	0.5598451982456442	-0.025014591790167115	1.2056257451823038	0.4867384830925524	0.08406298396370193	0.984278857866061	0.3674654274849942	0.1611423713476894	0.907419274462544	0.3855314431571531	0.1559998126619264	0.8663182555102253	0.3800489571075513	0.12800717420490454	0.8425558088437367	0.36761991389775917	
367	6.43859649122807	0.31047947530006786	0.9149735341803662	0.5352646040968981	0.325134764976275	0.4929553797928076	0.6166860045180632	0.3400695891037126	0.07288853425620394	0.7288349184641684	0.39191791821318034	0.0651852979285789	0.5302938995696691	0.42352613061988975	0.08078818375983857	0.5663337443646441	0.32538505434953446	0.036101610969193364	0.7611680783337833	0.09128353334632366	0.9150379926820691	0.5469069079431625	0.05505339798215888	0.49122158834013757	0.6531168381670913	0.01811710045901663	0.07411508166981687	0.7633751266848535	-0.013912370474250878	0.07999926062996729	0.5156372201293438	-0.05720829672576873	0.07178951011606424	0.5805684141809613	0.023795119221895096	-0.020556000777331943	0.8410396340659634	0.22350514623246975	1.5870122464755414	0.5534988283769126	0.25739483752879516	1.8420939083675172	0.48538128611721065	0.22830964726000935	1.6980094966775565	0.41507403125379705	0.38121175107606353	1.4924523212952938	0.5415493894702157	0.45008417799791955	1.2071211333259235	0.5309944026609148	0.271369241580642	1.0489227207829501	0.34665795797997545	0.17242332325396914	0.9993561857697918	0.33587681826451976	0.15495342921035515	0.9718405638965838	0.3488487800668764	0.17423168712245382	0.9586126346121995	0.33611417460687903	0.03427205376875023	1.4951368678971226	0.5573289013476239	-0.021160329592129844	1.2072248012454128	0.487786770107566	0.09691436379424133	0.9899767969749986	0.36479205795421893	0.16828019262167998	0.9175804250714636	0.38143360889314104	0.16563979861719413	0.8799308784414832	0.3780943931070368	0.14352067967076687	0.8567154967456857	0.3723589602415114	
368	6.456140350877193	0.31020016684557516	0.9147770864491888	0.5347379953998957	0.32481355559705544	0.49201710808708654	0.6178383329285605	0.3404032503422571	0.07228756939111144	0.72968444428132	0.39181203872161496	0.06405722672784488	0.5333399025303961	0.4243702801310376	0.07974196278002897	0.568756547594185	0.3253818668765097	0.03579829314815528	0.7610336768441849	0.09116681389301737	0.9151175186215813	0.5475196248310813	0.05489262359306265	0.49111765111887046	0.6532832367007455	0.017777679678794987	0.07417212154720498	0.7633661896065634	-0.013693429947137285	0.08008415272263586	0.5160444852407331	-0.05725064491779694	0.07062578864062018	0.584511481722702	0.023788586220948614	-0.020676611686902206	0.8409489898168654	0.22403527565130232	1.5871238431394057	0.550870721077254	0.25798197268130685	1.8417557312722062	0.4858461309455343	0.22886245123111065	1.698053820178292	0.4170198530592971	0.3814103364370144	1.4924646411983538	0.5434334312104682	0.4456850321674597	1.2066399304044773	0.5212934197199952	0.2593305749835683	1.0461113401629414	0.3513230463648117	0.1675753497348365	0.9987914755213312	0.32876228727259704	0.1471500037284103	0.9684730195723318	0.35319644269859923	0.1630964174077006	0.958452571080623	0.34503217718096385	0.03594279417428996	1.495298305350004	0.5550427734416324	-0.017276615490498012	1.209563556218897	0.489030639775763	0.10838098862776438	0.9943723140183974	0.3673539174887175	0.17212671310795336	0.9279158416378929	0.37904154459930584	0.17420077796464076	0.8895788011299106	0.3787707551148858	0.1570225128721997	0.8705972351827022	0.38224306566388455	
369	6.473684210526316	0.3100422423685999	0.914711520411656	0.5344576509051615	0.3244416332916738	0.4910499826008107	0.6192108600942117	0.3407136464478058	0.07167180175513618	0.7304443550249872	0.39176026894340193	0.0632894585664265	0.5356710854830042	0.4250040791048205	0.07821109553615367	0.5700598282569435	0.3253892075713452	0.0355208266175177	0.7609075356081865	0.09100214546380649	0.9154065773141614	0.5481643627397584	0.05478380933029215	0.49124372207379735	0.6532691037143368	0.017469910537897565	0.074245190461341	0.7633798757709884	-0.013038936502363433	0.0811308263414485	0.5143933856917747	-0.056179355914263714	0.06999534275277355	0.5865198928881541	0.023780735212382678	-0.020877466604936515	0.8408728743829414	0.224436436931437	1.587218589862641	0.5486573295413253	0.2583071636225825	1.8418708354978344	0.4862424113371145	0.22941543686671603	1.6980929205129016	0.41858669047150443	0.3811961981852327	1.4925384575671872	0.5437967993037182	0.44153774560479875	1.2065048980317643	0.5125759396311029	0.2493303741300916	1.0412979947826206	0.3588808277890062	0.16350054465160252	0.9934863178439025	0.32264357819066747	0.14201469539346748	0.9607665460377726	0.3595485522313405	0.1528815746756788	0.9546948376863704	0.35964129658839766	0.037455086835640264	1.4954393108744775	0.5533610915824771	-0.013676094807782275	1.2124784277060865	0.4894191209396971	0.11755119288695917	0.9981005479048709	0.3746558676958068	0.17225739606522578	0.9380850469709244	0.37821431829157254	0.18188247770644	0.8942858124193835	0.3839140691872175	0.1686161505962716	0.8830040565516881	0.39547232942863464	
370	6.491228070175438	0.30999947700601505	0.9147880083719334	0.5343763515130167	0.3240481271552033	0.49001475266233085	0.6207834324655758	0.3410050611846702	0.07104034313936711	0.7311387299604617	0.3919438354287985	0.06309649241125716	0.536708852782525	0.425587517437272	0.07668420772445636	0.5702124303904994	0.3254166270845346	0.035232521739158175	0.7608716259022531	0.0908147074322826	0.9156670317544319	0.5488781627718975	0.05475146176356137	0.4915243373200601	0.653080993200009	0.017223046460797135	0.07423542164107771	0.7634216242864796	-0.012063540430155523	0.08313701430278489	0.5108534281530747	-0.05425815293610975	0.07019070400586994	0.5860674837776023	0.023780525241942962	-0.021172816349179963	0.8408481849236727	0.22475273177857158	1.5872727987647433	0.5471807141181793	0.2584802421105784	1.842264092661117	0.4860835777477373	0.23006229600660943	1.6981369402068263	0.4196231739201721	0.38086277651230277	1.4925748417187423	0.5422828817173818	0.4381188323953006	1.2066772997044857	0.5058780139227828	0.2422657853120871	1.0355754468630056	0.36826352321335104	0.16010804985868388	0.9851112286285422	0.32023378399979624	0.13987001615897326	0.9511484497977748	0.3677425006763379	0.14489886146403466	0.948641789312572	0.37713370765852455	0.038564488494629956	1.495536019233938	0.5526492145274028	-0.010815023694077193	1.2158116991771029	0.4886987322498979	0.12398934672707676	1.0018689459362033	0.3848875992475968	0.16975628230290846	0.9475487063139921	0.37841477153678543	0.1887692147185873	0.8948712115086096	0.3929299360223935	0.17903012570157822	0.8928403232251568	0.4104372129854494	
